<svg width="16" height="15" viewBox="0 0 16 15" fill="none" xmlns="http://www.w3.org/2000/svg">
<path d="M14.7631 7.12571L8.15873 0.521319C7.89456 0.257144 7.52764 0.0957031 7.12404 0.0957031H1.9873C1.18009 0.0957031 0.519653 0.756142 0.519653 1.56335V6.70009C0.519653 7.10369 0.681094 7.47061 0.952608 7.74212L7.557 14.3465C7.82117 14.6107 8.18808 14.7721 8.59169 14.7721C8.99529 14.7721 9.3622 14.6107 9.62637 14.3392L14.7631 9.20242C15.0346 8.93825 15.1961 8.57134 15.1961 8.16774C15.1961 7.76413 15.0273 7.38988 14.7631 7.12571ZM8.59169 13.3118L1.9873 6.70009V1.56335H7.12404V1.55601L13.7284 8.1604L8.59169 13.3118Z" fill="#939191"/>
</svg>
