<svg width="13" height="15" viewBox="0 0 13 15" fill="none" xmlns="http://www.w3.org/2000/svg">
<path d="M0.446045 14.3975V0.470337L1.49058 1.51487L2.53512 0.470337L3.57965 1.51487L4.62419 0.470337L5.66872 1.51487L6.71326 0.470337L7.75779 1.51487L8.80233 0.470337L9.84686 1.51487L10.8914 0.470337L11.9359 1.51487L12.9805 0.470337V14.3975L11.9359 13.3529L10.8914 14.3975L9.84686 13.3529L8.80233 14.3975L7.75779 13.3529L6.71326 14.3975L5.66872 13.3529L4.62419 14.3975L3.57965 13.3529L2.53512 14.3975L1.49058 13.3529L0.446045 14.3975ZM2.53512 10.9157H10.8914V9.52298H2.53512V10.9157ZM2.53512 8.13026H10.8914V6.73755H2.53512V8.13026ZM2.53512 5.34484H10.8914V3.95212H2.53512V5.34484ZM1.83876 12.378H11.5878V2.48977H1.83876V12.378Z" fill="#594EF1"/>
</svg>
