<svg width="16" height="15" viewBox="0 0 16 15" fill="none" xmlns="http://www.w3.org/2000/svg">
<path d="M1.50061 12.3089C1.50061 11.4469 1.84302 10.6203 2.45251 10.0108C3.06201 9.40131 3.88866 9.0589 4.75061 9.0589H11.2506C12.1126 9.0589 12.9392 9.40131 13.5487 10.0108C14.1582 10.6203 14.5006 11.4469 14.5006 12.3089C14.5006 12.7399 14.3294 13.1532 14.0247 13.4579C13.7199 13.7627 13.3066 13.9339 12.8756 13.9339H3.12561C2.69463 13.9339 2.28131 13.7627 1.97656 13.4579C1.67182 13.1532 1.50061 12.7399 1.50061 12.3089Z" stroke="#939191" stroke-width="1.5" stroke-linejoin="round"/>
<path d="M8.00061 5.8089C9.3468 5.8089 10.4381 4.71759 10.4381 3.3714C10.4381 2.0252 9.3468 0.933899 8.00061 0.933899C6.65442 0.933899 5.56311 2.0252 5.56311 3.3714C5.56311 4.71759 6.65442 5.8089 8.00061 5.8089Z" stroke="#939191" stroke-width="1.5"/>
</svg>
