<svg width="5" height="8" viewBox="0 0 5 8" fill="none" xmlns="http://www.w3.org/2000/svg">
<path fill-rule="evenodd" clip-rule="evenodd" d="M3.81656 3.35536C3.94246 3.48143 4.01318 3.65231 4.01318 3.83048C4.01318 4.00865 3.94246 4.17954 3.81656 4.3056L1.2814 6.84165C1.15527 6.96772 0.984231 7.03852 0.805901 7.03848C0.627572 7.03844 0.456563 6.96755 0.330494 6.84143C0.204426 6.7153 0.133625 6.54426 0.133667 6.36593C0.133709 6.1876 0.204591 6.01659 0.330718 5.89052L2.39076 3.83048L0.330718 1.77044C0.208186 1.6437 0.140337 1.4739 0.141785 1.29761C0.143234 1.12133 0.213863 0.952661 0.338461 0.827945C0.463059 0.703229 0.631657 0.632441 0.807941 0.630827C0.984226 0.629212 1.15409 0.696901 1.28095 0.819314L3.81701 3.35492L3.81656 3.35536Z" fill="black"/>
</svg>
